# xmcd CD database file
#
# Track frame offsets:
#	150
#	19015
#	34507
#	54194
#	69947
#	88750
#	107717
#	127055
#	145823
#	164261
#	186503
#	204951
#	226094
#	245472
#	265024
#	281867
#	299530
#	316733
#
# Disc length: 4429 seconds
#
# Revision: 0
# Processed by: cddbd v1.5.1PL2 Copyright (c) Steve Scherf et al.
# Submitted via: CDex 1.51
#
DISCID=fc114b12
DTITLE=Juan Luis Guerra - Grandes Exitos
DYEAR=1900
DGENRE=Salsa
TTITLE0=El cosito de la vida
TTITLE1=Rosalia
TTITLE2=Woman del Callao
TTITLE3=Visa para un sueno
TTITLE4=Burbujas de amor
TTITLE5=Ojala que llueva cafe
TTITLE6=Me enamoro de ella
TTITLE7=Frio Frio
TTITLE8=Como abeja al panal
TTITLE9=A pedir su mano
TTITLE10=La bilirrubina
TTITLE11=Carta de amor
TTITLE12=Bachata rosa
TTITLE13=Guavaberry
TTITLE14=La cosquillita
TTITLE15=La gallera
TTITLE16=Si tú te vas
TTITLE17=Rompiendo fuente
EXTD=
EXTT0=
EXTT1=
EXTT2=
EXTT3=
EXTT4=
EXTT5=
EXTT6=
EXTT7=
EXTT8=
EXTT9=
EXTT10=
EXTT11=
EXTT12=
EXTT13=
EXTT14=
EXTT15=
EXTT16=
EXTT17=
PLAYORDER=
